<svg width="206" height="242" viewBox="0 0 206 242" fill="none" xmlns="http://www.w3.org/2000/svg">
<g clip-path="url(#clip0_4295_225)">
<path d="M124.38 74.464C123.321 73.4168 122.098 72.4969 121.244 71.307C113.336 60.2258 103.2 51.5525 92.3856 43.655C82.7484 36.6122 72.3588 31.0748 61.0289 27.6853C56.6194 26.3688 52.1021 25.4868 47.212 24.2972C51.8885 20.3106 57.3796 17.3617 59.567 11.1098C55.1637 14.6712 51.0473 18.683 46.2817 21.6666C41.5072 24.6565 36.081 26.6336 30.4798 29.2719C39.1113 33.4047 48.7513 35.7154 53.6303 45.391C54.3877 40.2031 51.5169 37.4842 37.3267 29.2799C39.8031 27.5708 42.0502 26.1597 45.2438 26.5656C63.1857 28.8264 79.0708 36.4046 93.6758 47.3354C102.208 53.7222 109.968 61.0339 116.954 69.0777C124.055 77.2489 130.482 85.9165 135.907 95.4061C143.305 108.322 149.365 121.712 153.436 135.933C158.251 152.762 160.275 169.804 157.762 186.905C154.973 205.967 147.53 222.791 134.431 236.621C133.631 237.468 132.904 238.402 132.202 239.333C132.061 239.528 132.146 239.898 132.11 240.379C133.431 241.327 134.239 240.281 134.975 239.534C142.245 232.18 147.932 223.673 152.247 214.184C161.112 194.725 162.665 174.075 159.459 152.654C156.902 135.569 150.915 119.527 143.401 103.953C142.082 101.22 140.109 98.8029 138.541 96.1874C137.867 95.066 137.482 93.7709 136.963 92.5689C132.777 86.5329 128.582 80.5031 124.38 74.464Z" fill="black" fill-opacity="0.6"/>
</g>
<defs>
<clipPath id="clip0_4295_225">
<rect width="88.41" height="232.459" fill="white" transform="matrix(0.820876 -0.571106 -0.571106 -0.820876 132.758 241.311)"/>
</clipPath>
</defs>
</svg>
